<svg width="246" height="207" viewBox="0 0 246 207" fill="none" xmlns="http://www.w3.org/2000/svg">
<path fill-rule="evenodd" clip-rule="evenodd" d="M28.8604 142.473C48.5023 156.603 63.1184 159.883 94.4632 165.731C125.808 171.58 171.859 174.573 205.072 153.154C238.284 131.734 245.998 103.029 245.998 74.8536C245.998 46.6785 218.588 -6.35024 156.9 0.626114C95.2124 7.60247 88.8484 41.934 41.2525 39.6269C-6.3434 37.3198 -1.35215 98.6017 2.02953 105.125C5.41121 111.648 9.21846 128.343 28.8604 142.473Z" fill="#F2F2F2"/>
<path fill-rule="evenodd" clip-rule="evenodd" d="M79 207C101.091 207 119 204.985 119 202.5C119 200.015 101.091 198 79 198C56.9086 198 39 200.015 39 202.5C39 204.985 56.9086 207 79 207Z" fill="#F2F2F2"/>
<path fill-rule="evenodd" clip-rule="evenodd" d="M192.422 152.239H103.839C101.662 152.239 99.8022 148.773 99.6862 144.497L96.0145 9.17488C95.8988 4.90025 97.5695 1.43347 99.7466 1.43347H188.33C190.507 1.43347 192.859 1.75084 192.975 6.02547L196.154 144.497C196.27 148.773 196.997 152.239 192.422 152.239Z" fill="#890000"/>
<path fill-rule="evenodd" clip-rule="evenodd" d="M181.329 156.256H172.973H92.2065C87.7763 156.256 88.4266 152.669 88.6568 148.245L95.9443 8.19091C96.169 3.87073 95.8608 0.514799 100.175 0.185281C100.225 0.182244 100.276 0.180725 100.327 0.180725H189.45C193.88 0.180725 193.23 3.76747 193 8.19091L185.712 148.245C185.482 152.669 185.759 156.256 181.329 156.256Z" fill="white"/>
<path fill-rule="evenodd" clip-rule="evenodd" d="M189.773 13.2126H181.183H98.1517C93.5973 13.2126 94.0957 12.9089 94.1221 12.5339L94.965 0.678778C94.9909 0.312815 94.5147 0.0288519 98.9339 0C98.9859 0 99.0383 0 99.0908 0H190.712C195.266 0 194.768 0.303704 194.742 0.678778L193.899 12.5339C193.873 12.9089 194.328 13.2126 189.773 13.2126Z" fill="#890000"/>
<path d="M103.631 44.7325H182.567" stroke="#B3B3B3" stroke-width="0.5" stroke-linecap="round" stroke-linejoin="round"/>
<path d="M128.202 18.4774L120.272 147.065" stroke="#B3B3B3" stroke-width="0.5" stroke-linecap="round" stroke-linejoin="round"/>
<path d="M159.899 18.4774L151.969 147.065" stroke="#B3B3B3" stroke-width="0.5" stroke-linecap="round" stroke-linejoin="round"/>
<path d="M102.139 81.9216H178.743" stroke="#B3B3B3" stroke-width="0.5" stroke-linecap="round" stroke-linejoin="round"/>
<path d="M102.139 120.989H176.91" stroke="#B3B3B3" stroke-width="0.5" stroke-linecap="round" stroke-linejoin="round"/>
<path fill-rule="evenodd" clip-rule="evenodd" d="M113.565 19.9199C108.062 19.9199 103.115 24.3965 102.536 29.8996C101.958 35.4043 105.965 39.8809 111.467 39.8809C116.97 39.8809 121.917 35.4043 122.495 29.8996C123.073 24.3965 119.068 19.9199 113.565 19.9199ZM111.348 41.0122C105.223 41.0122 100.763 36.0269 101.406 29.8996C102.05 23.7739 107.558 18.7902 113.684 18.7902C119.81 18.7902 124.269 23.7739 123.625 29.8996C122.981 36.0269 117.474 41.0122 111.348 41.0122Z" fill="#E30613"/>
<path fill-rule="evenodd" clip-rule="evenodd" d="M137.181 67.9652H135.122L135.937 60.2015C135.11 60.9053 134.169 61.426 133.112 61.7633L133.309 59.8937C133.865 59.7181 134.484 59.3844 135.166 58.8928C135.848 58.4022 136.341 57.8285 136.644 57.1737H138.315L137.181 67.9652Z" fill="#2D2B6E"/>
<path fill-rule="evenodd" clip-rule="evenodd" d="M144.716 63.9922L145.103 60.3195L142.246 63.9922H144.716ZM144.299 67.9652L144.526 65.8027H140.128L140.318 63.9994L145.697 57.1737H147.427L146.71 63.9922H148.045L147.854 65.8027H146.52L146.293 67.9652H144.299Z" fill="#2D2B6E"/>
<path fill-rule="evenodd" clip-rule="evenodd" d="M109.487 34.8925H107.396L108.224 27.0114C107.385 27.7251 106.43 28.2535 105.356 28.5967L105.556 26.6986C106.12 26.5194 106.749 26.1808 107.441 25.6827C108.134 25.1831 108.634 24.6015 108.942 23.9364H110.639L109.487 34.8925Z" fill="#2D2B6E"/>
<path fill-rule="evenodd" clip-rule="evenodd" d="M117.117 25.6705C116.864 25.6705 116.63 25.7525 116.414 25.9135C116.199 26.0745 116.015 26.3645 115.862 26.7806C115.661 27.3212 115.493 28.2308 115.359 29.5109C115.225 30.7925 115.197 31.6717 115.275 32.1501C115.354 32.6299 115.482 32.9473 115.662 33.1067C115.841 33.2662 116.058 33.3451 116.31 33.3451C116.563 33.3451 116.798 33.2647 117.013 33.1037C117.229 32.9412 117.413 32.6527 117.566 32.2351C117.765 31.7006 117.933 30.7925 118.068 29.5109C118.202 28.2308 118.23 27.3515 118.151 26.8732C118.073 26.3949 117.944 26.0745 117.765 25.9135C117.586 25.7525 117.37 25.6705 117.117 25.6705ZM117.299 23.9364C118.356 23.9364 119.142 24.3145 119.658 25.0677C120.274 25.9621 120.473 27.4427 120.256 29.5109C120.039 31.5761 119.525 33.0597 118.716 33.9632C118.048 34.7073 117.185 35.0793 116.128 35.0793C115.067 35.0793 114.253 34.6708 113.69 33.8554C113.126 33.0384 112.954 31.5837 113.173 29.4896C113.389 27.4351 113.902 25.956 114.711 25.054C115.38 24.31 116.243 23.9364 117.299 23.9364Z" fill="#2D2B6E"/>
<path fill-rule="evenodd" clip-rule="evenodd" d="M135.164 106.015H133.118L133.929 98.3029C133.107 99.0017 132.172 99.5183 131.123 99.8543L131.318 97.9967C131.87 97.8224 132.485 97.4908 133.163 97.0024C133.84 96.5147 134.33 95.9457 134.631 95.2947H136.291L135.164 106.015Z" fill="#2D2B6E"/>
<path fill-rule="evenodd" clip-rule="evenodd" d="M139.13 97.3853L139.33 95.4846H146.327L146.171 96.9706C145.534 97.5381 144.861 98.3542 144.151 99.4168C143.443 100.48 142.869 101.61 142.43 102.807C141.991 104.004 141.725 105.073 141.63 106.015H139.657C139.847 104.539 140.309 103.034 141.045 101.5C141.783 99.9652 142.695 98.5939 143.783 97.3853H139.13Z" fill="#2D2B6E"/>
<path fill-rule="evenodd" clip-rule="evenodd" d="M83.5786 48.4605L99.5436 29.2573C99.5436 29.2573 100.108 26.6728 101.303 25.3593C102.088 24.4968 102.971 23.2592 103.691 22.4817C104.202 21.9305 104.675 21.6389 104.762 21.7483C104.845 21.853 104.605 22.1689 104.399 22.5789C104.087 23.206 103.729 23.979 103.729 23.979C103.729 23.979 104.255 23.0739 104.959 22.3116C105.603 21.6131 106.433 21.0361 106.402 21.3641C106.369 21.7057 105.937 22.1643 105.686 22.6108C105.26 23.367 104.941 24.0837 104.941 24.0837C104.941 24.0837 105.505 23.2637 106.246 22.4938C106.907 21.806 107.742 21.15 107.93 21.2623C108.111 21.3686 107.461 22.1461 106.897 22.9205C106.333 23.6935 105.855 24.4634 105.751 24.682C105.64 24.9144 106.175 24.061 106.863 23.4034C107.478 22.8158 108.245 22.4134 108.296 22.6442C108.358 22.9069 107.657 23.5902 107.077 24.3434C106.571 25.0024 105.28 27.0631 105.498 27.2195C105.871 27.4913 107.247 24.8855 107.878 25.3881C108.118 25.5795 106.477 28.6363 105.706 29.0463C104.933 29.4578 101.993 31.1114 101.993 31.1114L88.5754 51.1665L83.5786 48.4605Z" fill="#F7CBB7"/>
<path fill-rule="evenodd" clip-rule="evenodd" d="M94.4229 196.131L98.1259 196.795C98.1259 196.795 98.4694 197.864 100.981 198.673C103.492 199.49 105.788 199.429 107.263 200.048C108.118 200.402 109.162 201.467 109.296 202.716C109.325 202.992 109.342 203.253 109.353 203.485C109.376 203.973 108.974 204.375 108.486 204.36C105.158 204.253 93.5213 203.851 92.9653 203.391C92.7946 203.254 92.8115 202.69 92.9284 201.937C93.2688 199.804 94.4229 196.131 94.4229 196.131Z" fill="#1E2050"/>
<path fill-rule="evenodd" clip-rule="evenodd" d="M95.09 192.771L94.1914 196.795C94.1914 196.795 95.6241 197.756 98.126 196.795L99.0245 192.771H95.09Z" fill="#F7CBB7"/>
<path fill-rule="evenodd" clip-rule="evenodd" d="M57.5976 179.691L60.1215 182.482C60.1215 182.482 59.7401 183.537 61.2336 185.714C62.7202 187.895 64.5732 189.252 65.363 190.644C65.8213 191.447 65.9959 192.926 65.339 193.998C65.1933 194.233 65.0465 194.452 64.9136 194.641C64.6332 195.042 64.07 195.115 63.6936 194.804C61.1248 192.685 52.1633 185.248 52.0047 184.544C51.9547 184.332 52.3111 183.896 52.8652 183.372C54.4387 181.893 57.5976 179.691 57.5976 179.691Z" fill="#1E2050"/>
<path fill-rule="evenodd" clip-rule="evenodd" d="M60.1793 177.441L57.0076 180.075C57.0076 180.075 57.5536 181.712 60.1215 182.482L63.2933 179.848L60.1793 177.441Z" fill="#F7CBB7"/>
<path fill-rule="evenodd" clip-rule="evenodd" d="M74.7927 112.083C74.7927 112.083 90.8177 116.316 105.151 114.185C105.151 114.185 110.775 127.51 110.755 158.84C110.749 167.995 104.912 182.546 99.924 194.073H92.8415C92.8415 194.073 97.1324 167.456 97.0277 161.008C96.9339 155.27 96.2339 146.897 92.3172 134.528L90.7808 134.317C90.7808 134.317 88.776 150.724 85.6322 158.589C83.0902 164.948 72.772 178.184 63.497 182.711L58.6069 177.208C58.6069 177.208 71.8584 158.264 74.2136 152.14C76.9002 145.155 73.4958 121.287 74.7927 112.083Z" fill="#291A6D"/>
<path fill-rule="evenodd" clip-rule="evenodd" d="M92.0499 66.9623C92.0499 66.9623 94.9552 67.9418 96.7143 68.7816C97.2784 69.0511 97.9224 68.9324 98.3497 68.46C101.37 65.127 113.539 55.078 113.978 54.0015C114.484 52.7594 119.881 57.3746 120.217 58.0845C120.555 58.7944 105.205 74.0627 103.18 77.4356C101.156 80.8096 107.571 90.574 105.713 117.558C105.713 117.558 78.5577 117.558 74.6799 114.895C74.6799 114.895 76.0288 77.7922 78.5577 72.6438C81.0877 67.4945 80.5824 53.5803 80.9199 51.3062C81.2564 49.0314 86.4849 41.7532 86.4849 41.7532L92.8925 44.9481L88.0025 54.8903L87.6649 67.4945C87.6649 67.4945 89.52 67.3177 92.0499 66.9623Z" fill="#E30613"/>
<path fill-rule="evenodd" clip-rule="evenodd" d="M85.0242 41.7258C85.0242 41.7258 89.6557 43.3157 92.3214 46.1265C92.3214 46.1265 94.5178 44.1691 94.8213 43.3142C94.8213 43.3142 91.1672 38.9302 86.9291 38.4155L85.0242 41.7258Z" fill="#BF0613"/>
<path fill-rule="evenodd" clip-rule="evenodd" d="M94.9691 49.1423L96.7672 51.7025C96.7672 51.7025 98.0361 51.2576 98.2468 51.7025C98.4585 52.1475 97.2953 53.8178 97.2953 53.8178C97.2953 53.8178 99.7264 58.0466 98.8818 58.9372C98.0361 59.828 94.9691 61.7201 94.9691 61.7201L95.3444 68.1845C95.3444 68.1845 91.7183 70.7865 87.1767 70.1796C86.7873 70.1266 86.4789 69.7801 86.434 69.3697L85.7709 63.3897C85.7709 63.3897 79.533 59.16 81.0126 53.3726C82.4933 47.5858 92.6439 44.4683 94.9691 49.1423Z" fill="#F7CBB7"/>
<path fill-rule="evenodd" clip-rule="evenodd" d="M120.367 56.5568L120.064 31.2891C120.064 31.2891 121.24 28.9506 121.141 27.1541C121.029 25.136 121.053 22.2827 120.728 22.3435C120.403 22.4012 120.135 24.48 120.135 24.48C120.135 24.48 120.088 20.1401 119.712 20.705C119.207 21.4627 119.141 23.7451 119.141 23.7451C119.141 23.7451 119.056 19.6906 118.602 19.6026C118.193 19.5206 118.258 23.1832 118.147 23.657C118.033 24.1308 117.852 20.1082 117.458 20.4043C117.065 20.6989 117.111 23.9136 117.167 24.3874C117.223 24.8597 117.024 25.7768 116.76 25.751C116.306 25.707 116.869 22.8081 116.072 22.7656C115.77 22.7489 115.124 26.1686 115.462 26.9962C115.799 27.8253 117.029 31.0522 117.029 31.0522L114.844 55.2557L120.367 56.5568Z" fill="#F7CBB7"/>
<path fill-rule="evenodd" clip-rule="evenodd" d="M112.246 55.1328C112.246 55.1328 116.969 56.4849 119.803 59.1539C119.803 59.1539 121.878 57.089 122.132 56.2202C122.132 56.2202 118.215 52.032 113.949 51.7344L112.246 55.1328Z" fill="#BF0613"/>
<path fill-rule="evenodd" clip-rule="evenodd" d="M90.8927 49.6464C92.0677 49.452 93.2488 49.241 94.3191 48.7186C95.9695 47.9123 96.1901 47.2639 96.232 45.0726C96.311 41.0896 93.7851 39.6151 93.7851 39.6151C93.7851 39.6151 94.1635 41.1943 93.838 41.7805C93.838 41.7805 92.5261 39.0532 91.8371 38.9424C91.8371 38.9424 90.3206 41.0106 90.158 41.8929C90.158 41.8929 82.681 42.4517 79.8586 48.8735C77.0372 55.2977 83.1333 62.6038 85.7709 63.3896L87.1109 58.0256C87.1109 58.0256 85.6273 58.2563 85.2398 57.4434C84.9614 56.8614 84.4781 54.6697 86.1255 54.5329C88.3258 54.35 88.0304 61.3156 90.1389 62.1106C92.2475 62.9043 99.5557 60.8414 99.2901 58.5738C99.0246 56.3042 98.087 55.3416 98.087 55.3416C98.087 55.3416 93.9807 55.4944 92.6839 57.0121C91.3869 58.5299 88.5325 56.2852 88.3258 54.35C88.1432 52.6437 88.9099 49.9775 90.8927 49.6464Z" fill="#890000"/>
</svg>
