<svg width="245" height="190" viewBox="0 0 245 190" fill="none" xmlns="http://www.w3.org/2000/svg">
<path fill-rule="evenodd" clip-rule="evenodd" d="M194.139 45.1982C194.139 45.1982 171.418 29.8059 145.84 12.5255C120.262 -4.7549 71.2636 -6.98209 52.3694 24.0419C33.4752 55.0658 0.277993 73.1932 0.277993 101.023C0.277993 128.852 27.1385 181.23 87.5889 174.34C148.039 167.449 159.296 121.309 200.917 135.817C242.538 150.326 256.558 88.7389 234.574 70.9594C212.591 53.1798 194.139 45.1982 194.139 45.1982Z" fill="#F2F2F2"/>
<path fill-rule="evenodd" clip-rule="evenodd" d="M193.989 188.388C206.945 188.388 217.447 187.05 217.447 185.4C217.447 183.75 206.945 182.412 193.989 182.412C181.034 182.412 170.532 183.75 170.532 185.4C170.532 187.05 181.034 188.388 193.989 188.388Z" fill="#F2F2F2"/>
<path fill-rule="evenodd" clip-rule="evenodd" d="M151.726 13.8357C151.726 6.27447 145.629 0.135254 138.119 0.135254H53.0746C45.565 0.135254 39.468 6.27447 39.468 13.8357V174.494C39.468 182.055 45.565 188.195 53.0746 188.195H138.119C145.629 188.195 151.726 182.055 151.726 174.494V13.8357Z" fill="#291A6D"/>
<path fill-rule="evenodd" clip-rule="evenodd" d="M146.651 22.2692C146.651 15.3905 141.106 9.80658 134.275 9.80658H56.9185C50.0877 9.80658 44.542 15.3905 44.542 22.2692V156.801C44.542 163.679 50.0877 169.263 56.9185 169.263H134.275C141.106 169.263 146.651 163.679 146.651 156.801V22.2692Z" fill="white"/>
<path fill-rule="evenodd" clip-rule="evenodd" d="M138.968 41.3464C138.968 36.8879 135.374 33.2691 130.947 33.2691H61.7778C57.3507 33.2691 53.7563 36.8879 53.7563 41.3464C53.7563 45.8035 57.3507 49.4223 61.7778 49.4223H130.947C135.374 49.4223 138.968 45.8035 138.968 41.3464Z" stroke="#CCCCCC" stroke-linecap="round" stroke-linejoin="round"/>
<path fill-rule="evenodd" clip-rule="evenodd" d="M128.298 37.041C130.274 37.041 131.879 38.6567 131.879 40.6476C131.879 42.6371 130.274 44.2528 128.298 44.2528C126.322 44.2528 124.718 42.6371 124.718 40.6476C124.718 38.6567 126.322 37.041 128.298 37.041Z" stroke="#E30613" stroke-linecap="round" stroke-linejoin="round"/>
<path d="M130.732 43.2913L132.329 44.8989" stroke="#E30613" stroke-linecap="round" stroke-linejoin="round"/>
<path d="M53.259 86.386L64.0303 77.7305L74.2813 88.0946L89.839 72.5253" stroke="#CCCCCC" stroke-linecap="round" stroke-linejoin="round"/>
<path fill-rule="evenodd" clip-rule="evenodd" d="M60.1144 67.2688C61.9751 67.2688 63.4858 68.7899 63.4858 70.6636C63.4858 72.5372 61.9751 74.0582 60.1144 74.0582C58.2535 74.0582 56.7429 72.5372 56.7429 70.6636C56.7429 68.7899 58.2535 67.2688 60.1144 67.2688Z" stroke="#CCCCCC" stroke-linecap="round" stroke-linejoin="round"/>
<path fill-rule="evenodd" clip-rule="evenodd" d="M89.7566 66.8295C89.7566 65.0344 88.3092 63.5769 86.5263 63.5769H56.3145C54.5316 63.5769 53.0842 65.0344 53.0842 66.8295V92.9495C53.0842 94.7447 54.5316 96.2021 56.3145 96.2021H86.5263C88.3092 96.2021 89.7566 94.7447 89.7566 92.9495V66.8295Z" stroke="#CCCCCC" stroke-linecap="round" stroke-linejoin="round"/>
<path d="M101.529 86.386L112.3 77.7305L122.551 88.0946L138.109 72.5253" stroke="#CCCCCC" stroke-linecap="round" stroke-linejoin="round"/>
<path fill-rule="evenodd" clip-rule="evenodd" d="M108.385 67.2688C110.245 67.2688 111.756 68.7899 111.756 70.6636C111.756 72.5372 110.245 74.0582 108.385 74.0582C106.524 74.0582 105.013 72.5372 105.013 70.6636C105.013 68.7899 106.524 67.2688 108.385 67.2688Z" stroke="#CCCCCC" stroke-linecap="round" stroke-linejoin="round"/>
<path fill-rule="evenodd" clip-rule="evenodd" d="M138.027 66.8295C138.027 65.0344 136.579 63.5769 134.797 63.5769H104.585C102.802 63.5769 101.354 65.0344 101.354 66.8295V92.9495C101.354 94.7447 102.802 96.2021 104.585 96.2021H134.797C136.579 96.2021 138.027 94.7447 138.027 92.9495V66.8295Z" stroke="#CCCCCC" stroke-linecap="round" stroke-linejoin="round"/>
<path d="M53.259 134.642L64.0303 125.986L74.2813 136.35L89.839 120.781" stroke="#CCCCCC" stroke-linecap="round" stroke-linejoin="round"/>
<path fill-rule="evenodd" clip-rule="evenodd" d="M60.1144 115.525C61.9751 115.525 63.4858 117.046 63.4858 118.919C63.4858 120.793 61.9751 122.314 60.1144 122.314C58.2535 122.314 56.7429 120.793 56.7429 118.919C56.7429 117.046 58.2535 115.525 60.1144 115.525Z" stroke="#CCCCCC" stroke-linecap="round" stroke-linejoin="round"/>
<path fill-rule="evenodd" clip-rule="evenodd" d="M89.7566 115.085C89.7566 113.29 88.3092 111.833 86.5263 111.833H56.3145C54.5316 111.833 53.0842 113.29 53.0842 115.085V141.205C53.0842 143 54.5316 144.458 56.3145 144.458H86.5263C88.3092 144.458 89.7566 143 89.7566 141.205V115.085Z" stroke="#CCCCCC" stroke-linecap="round" stroke-linejoin="round"/>
<path d="M101.529 134.642L112.3 125.986L122.551 136.35L138.109 120.781" stroke="#CCCCCC" stroke-linecap="round" stroke-linejoin="round"/>
<path fill-rule="evenodd" clip-rule="evenodd" d="M108.385 115.525C110.245 115.525 111.756 117.046 111.756 118.919C111.756 120.793 110.245 122.314 108.385 122.314C106.524 122.314 105.013 120.793 105.013 118.919C105.013 117.046 106.524 115.525 108.385 115.525Z" stroke="#CCCCCC" stroke-linecap="round" stroke-linejoin="round"/>
<path fill-rule="evenodd" clip-rule="evenodd" d="M138.027 115.085C138.027 113.29 136.579 111.833 134.797 111.833H104.585C102.802 111.833 101.354 113.29 101.354 115.085V141.205C101.354 143 102.802 144.458 104.585 144.458H134.797C136.579 144.458 138.027 143 138.027 141.205V115.085Z" stroke="#CCCCCC" stroke-linecap="round" stroke-linejoin="round"/>
<path fill-rule="evenodd" clip-rule="evenodd" d="M169.907 86.759C168.455 86.845 163.246 85.0392 162.819 84.6953C162.05 84.0933 162.306 83.7495 162.306 83.7495C161.367 83.2335 161.623 82.6316 161.623 82.6316C160.769 81.6857 162.136 81.6857 162.136 81.6857C161.538 80.224 164.1 80.9119 164.868 81.1699C165.295 81.3417 167.089 81.7717 167.089 81.7717C167.089 81.7717 167.089 81.2557 166.747 80.8259C166.405 80.4819 165.637 80.052 165.637 79.2781C165.551 78.7621 168.284 80.3959 169.053 81.2557C169.736 81.9437 170.59 84.0073 170.59 84.0073L178.874 84.3513L179.642 88.7367L169.907 86.759Z" fill="#F9C5B3"/>
<path fill-rule="evenodd" clip-rule="evenodd" d="M189.89 68.4437C187.926 71.6252 184.168 80.3099 183.058 81.6858C181.862 83.1475 178.104 83.6635 178.104 83.6635L176.567 89.6826C176.567 89.6826 184.425 89.9406 186.473 88.6507C189.719 86.5871 199.71 79.45 200.735 73.0869C201.418 68.7016 197.575 64.7463 194.416 66.036C192.11 66.7239 191.085 66.466 189.89 68.4437Z" fill="#BF0613"/>
<path fill-rule="evenodd" clip-rule="evenodd" d="M179.642 82.4597C179.642 82.4597 177.25 87.447 177.592 90.3705C177.592 90.3705 176.056 90.6285 175.287 90.1126C175.287 90.1126 176.396 83.4056 177.592 82.0298C177.592 82.0298 178.446 81.7718 179.642 82.4597Z" fill="#BF0613"/>
<path fill-rule="evenodd" clip-rule="evenodd" d="M187.327 47.5493C187.327 47.5493 184.596 52.88 185.364 57.1793C186.132 61.4787 190.573 63.1124 190.573 65.864C190.658 68.6156 188.097 71.1954 189.463 73.861C190.829 76.5266 204.578 81.3418 208.591 77.8163C212.605 74.3768 213.459 69.7335 210.983 66.208C208.507 62.6825 208.336 60.5328 209.275 57.8672C210.299 55.2016 210.129 49.6986 206.286 46.1733C202.187 42.3893 194.501 40.5839 187.327 47.5493Z" fill="#890000"/>
<path fill-rule="evenodd" clip-rule="evenodd" d="M183.484 180.743C183.484 180.743 179.3 183.151 178.617 185.559C177.933 187.966 185.619 184.183 185.619 184.183C185.619 184.183 186.218 185.903 186.473 185.989C186.815 186.075 187.413 182.463 186.473 181.001C185.534 179.454 183.484 180.743 183.484 180.743Z" fill="#291A6D"/>
<path fill-rule="evenodd" clip-rule="evenodd" d="M184.083 176.358L184.168 180.485C184.168 180.485 181.435 182.721 182.033 183.753C182.63 184.785 186.815 181.775 186.815 181.775L187.498 177.304L184.083 176.358Z" fill="#F4CDBA"/>
<path fill-rule="evenodd" clip-rule="evenodd" d="M179.813 106.794C179.813 106.794 177.934 134.31 178.874 142.995C179.813 150.906 182.546 178.594 182.546 178.594L188.78 178.336L190.231 143.683C189.974 141.705 189.206 138.008 189.89 136.03C194.16 122.702 205.773 112.469 198.771 102.065C190.316 89.5106 179.813 106.794 179.813 106.794Z" fill="#161052"/>
<path fill-rule="evenodd" clip-rule="evenodd" d="M203.639 179.196C203.639 179.196 200.992 183.237 201.504 185.731C202.017 188.138 207.055 181.259 207.055 181.259C207.055 181.259 208.336 182.463 208.677 182.463C209.019 182.377 207.908 178.852 206.372 178.078C204.834 177.304 203.639 179.196 203.639 179.196Z" fill="#291A6D"/>
<path fill-rule="evenodd" clip-rule="evenodd" d="M202.187 174.982L204.151 178.594C204.151 178.594 202.7 181.861 203.723 182.463C204.748 183.065 207.14 178.508 207.14 178.508L205.688 174.208L202.187 174.982Z" fill="#F4CDBA"/>
<path fill-rule="evenodd" clip-rule="evenodd" d="M182.887 107.74C182.887 107.74 183.485 129.323 185.79 137.75C187.926 145.403 200.906 177.39 200.906 177.39L206.969 176.1L198.259 140.243C197.661 138.266 198.771 135.514 199.113 133.536C201.163 119.692 209.275 109.116 200.735 100.001C190.402 88.9947 182.887 107.74 182.887 107.74Z" fill="#291A6D"/>
<path fill-rule="evenodd" clip-rule="evenodd" d="M178.617 107.654C180.922 113.587 205.773 112.039 205.773 112.039C205.773 112.039 205.773 94.068 206.115 88.1349C206.286 84.6954 206.798 81.2558 205.518 74.2908C204.236 67.3259 199.026 65.6922 199.026 65.6922C199.026 65.6922 194.5 62.9405 188.694 69.5615C187.498 70.9374 183.058 73.775 182.118 79.5361C181.947 80.5679 182.118 82.8037 182.63 84.0934C183.655 86.673 184.595 88.2209 184.425 90.1986C184.083 93.7241 178.617 107.654 178.617 107.654Z" fill="#E30613"/>
<path fill-rule="evenodd" clip-rule="evenodd" d="M191.427 63.3704C185.705 59.157 189.122 47.8066 189.122 47.8066L195.355 48.6666L198.345 48.8386L199.026 53.4818C199.026 53.4818 201.504 51.9346 201.589 53.8258C201.675 55.2015 200.393 57.0073 200.393 57.0073C200.393 57.0073 199.625 60.8768 196.978 63.0265C197.063 63.5424 197.49 65.0041 197.746 65.5201C197.746 65.5201 194.586 69.3036 192.195 70.2494C189.804 71.1953 190.915 66.8958 190.915 66.8958C190.915 66.8958 191.341 64.9181 191.427 63.3704Z" fill="#F4CDBA"/>
<path fill-rule="evenodd" clip-rule="evenodd" d="M184.425 53.2238C184.425 53.2238 185.364 52.1066 185.108 50.2999C184.937 48.4946 185.364 45.8293 188.352 45.3986C189.463 45.2266 190.231 46.0866 190.829 47.1186C192.281 44.1946 197.234 44.2813 199.539 44.8826C203.723 45.9146 206.201 50.6439 206.543 52.9659C206.884 55.3736 204.919 63.3704 202.358 62.1665C199.796 60.9628 201.076 59.7589 200.906 58.2112C200.821 56.6634 196.807 55.7176 194.16 53.9118C192.281 52.7079 191.256 50.2146 191.256 49.1826C191.256 49.0959 189.548 52.1919 184.425 53.2238Z" fill="#890000"/>
<path fill-rule="evenodd" clip-rule="evenodd" d="M188.78 55.5455C188.78 55.5455 188.011 57.0933 187.498 57.6091C186.986 58.1251 188.951 58.813 188.951 58.813L188.78 55.5455Z" fill="#F4CDBA"/>
<path fill-rule="evenodd" clip-rule="evenodd" d="M128.745 17.2812C142.743 17.2812 154.108 28.724 154.108 42.8199C154.108 56.9144 142.743 68.3577 128.745 68.3577C114.747 68.3577 103.382 56.9144 103.382 42.8199C103.382 28.724 114.747 17.2812 128.745 17.2812Z" fill="white" fill-opacity="0.53"/>
<path fill-rule="evenodd" clip-rule="evenodd" d="M148.569 60.418L143.871 64.6736L152.666 74.5177L157.364 70.2621L148.569 60.418Z" fill="#8D0613"/>
<path fill-rule="evenodd" clip-rule="evenodd" d="M196.466 119.176C193.819 121.584 189.377 120.81 186.73 117.543L150.094 73.1729L156.328 67.4978L195.867 109.202C198.856 112.297 199.113 116.769 196.466 119.176Z" fill="#BB0613"/>
<path fill-rule="evenodd" clip-rule="evenodd" d="M98.4289 50.2999C99.6245 55.2016 101.93 59.8449 105.517 63.8864C117.046 76.7844 136.772 77.8163 149.582 66.208C162.392 54.5997 163.416 34.7359 151.888 21.8385C150.009 19.7745 147.874 17.9692 145.654 16.5065C134.125 8.93981 118.497 9.79981 107.823 19.5172C99.0268 27.5132 95.7816 39.3799 98.4289 50.2999ZM107.737 51.3319C104.321 42.7332 106.286 32.5012 113.544 25.8799C122.511 17.7972 136.004 18.2265 144.458 26.5679C144.8 26.9119 145.141 27.2559 145.483 27.5999C153.852 36.9719 153.083 51.3319 143.775 59.7589C134.467 68.1857 120.205 67.4119 111.836 58.0392C110.128 56.0614 108.677 53.7398 107.737 51.3319Z" fill="#BB0613"/>
<path fill-rule="evenodd" clip-rule="evenodd" d="M181.606 94.584C180.24 95.0138 174.774 94.498 174.177 94.326C173.237 93.8961 173.493 93.5521 173.493 93.5521C172.468 93.2081 172.554 92.6062 172.554 92.6062C171.444 91.9183 172.81 91.5743 172.81 91.5743C171.871 90.2846 174.518 90.2846 175.373 90.4565C175.799 90.5425 177.678 90.4565 177.678 90.4565C177.678 90.4565 177.592 90.0266 177.079 89.5966C176.738 89.3387 175.885 89.0807 175.628 88.3069C175.457 87.7909 178.446 88.7367 179.471 89.4246C180.325 89.9406 181.606 91.7463 181.606 91.7463L189.719 90.0266L191.512 94.154L181.606 94.584Z" fill="#F9C5B3"/>
<path fill-rule="evenodd" clip-rule="evenodd" d="M194.074 74.2908C194.416 78.0743 193.903 84.7813 193.135 86.4151C192.281 88.1348 188.78 89.5106 188.78 89.5106V95.7018C188.78 95.7018 196.38 93.9819 198.088 92.2622C200.735 89.4246 204.834 80.3099 204.236 73.8609C203.81 69.3896 199.113 66.552 196.38 68.6156C194.416 69.9054 193.989 73.2589 194.074 74.2908Z" fill="#BF0613"/>
<path fill-rule="evenodd" clip-rule="evenodd" d="M189.974 88.0488C189.974 88.0488 188.865 93.466 189.89 96.2176C189.89 96.2176 188.438 96.8195 187.584 96.5616C187.584 96.5616 186.986 89.7685 187.84 88.1348C187.84 88.1348 188.609 87.6188 189.974 88.0488Z" fill="#BF0613"/>
<path fill-rule="evenodd" clip-rule="evenodd" d="M112.69 49.0106C111.495 49.0106 110.555 48.0639 110.555 46.9466C110.385 39.6372 112.946 32.6732 117.9 27.3412C118.668 26.4812 120.034 26.3958 120.888 27.2558C121.742 28.0292 121.828 29.4052 120.974 30.2652C116.789 34.7359 114.569 40.6692 114.74 46.7746C114.825 48.0639 113.886 49.0106 112.69 49.0106Z" fill="white"/>
<path fill-rule="evenodd" clip-rule="evenodd" d="M107.952 4.84833C107.952 4.67362 107.81 4.53006 107.636 4.53006H85.2102C85.0355 4.53006 84.8936 4.67362 84.8936 4.84833V5.48622C84.8936 5.66229 85.0355 5.80585 85.2102 5.80585H107.636C107.81 5.80585 107.952 5.66229 107.952 5.48622V4.84833Z" fill="white"/>
<path fill-rule="evenodd" clip-rule="evenodd" d="M95.5966 171.855C99.0586 171.855 101.869 174.685 101.869 178.171C101.869 181.657 99.0586 184.487 95.5966 184.487C92.1347 184.487 89.324 181.657 89.324 178.171C89.324 174.685 92.1347 171.855 95.5966 171.855Z" fill="white"/>
</svg>
